<svg width="24" height="24" viewBox="0 0 24 24" fill="none" xmlns="http://www.w3.org/2000/svg">
<path d="M13.687 5L13.6572 5.18077L13.1086 8.50886L17.0036 8.50902L16.9734 8.69007L16.6071 10.888L16.5854 11.0179L12.6908 11.0178L11.8084 16.3116L11.9899 16.3751L14.9307 14.0566L15.0465 13.9653L15.1438 14.0761L16.532 15.6571L16.6353 15.7747L16.517 15.8772L15.3586 16.8811C14.946 17.2292 14.572 17.5355 14.2363 17.8002C13.8965 18.0681 13.5721 18.2909 13.2632 18.4684C12.9504 18.6481 12.6398 18.7817 12.3315 18.8688C12.0216 18.9564 11.6861 19 11.3252 19C10.4354 19 9.77233 18.7595 9.34738 18.2719C8.92902 17.7918 8.72107 17.1577 8.72107 16.3766C8.72107 16.1913 8.73099 16.0028 8.75081 15.8111C8.77051 15.6207 8.80635 15.3764 8.85818 15.0783L9.54095 11.0178L6.99634 11.0179L7.02651 10.8369L7.39284 8.63894L7.41449 8.50902H9.14648C9.52579 8.50902 9.80431 8.43436 9.98535 8.29173C10.1612 8.15317 10.2833 7.88637 10.3427 7.48253L10.7283 5.13033L10.7496 5H13.687Z" fill="url(#paint0_linear_3_97)"/>
<defs>
<linearGradient id="paint0_linear_3_97" x1="14.5" y1="5" x2="8.32746" y2="17.6776" gradientUnits="userSpaceOnUse">
<stop stop-color="#F4E0B7"/>
<stop offset="0.238855" stop-color="#A854B0"/>
<stop offset="0.49522" stop-color="#3A068A"/>
<stop offset="1" stop-color="#04002A"/>
</linearGradient>
</defs>
</svg>
