<svg width="640" height="640" viewBox="0 0 640 640" fill="none" xmlns="http://www.w3.org/2000/svg">
<rect width="640" height="640" fill="#D4E8FF"/>
<g clip-path="url(#clip0_67_2)">
<path d="M320 520C430.457 520 520 430.457 520 320C520 209.543 430.457 120 320 120C209.543 120 120 209.543 120 320C120 430.457 209.543 520 320 520Z" fill="url(#paint0_linear_67_2)"/>
<path d="M421.328 408.438C413.984 417.813 399.922 433.281 377.5 444.531C356.25 455.234 335.469 458.203 318.828 458.125C313.906 458.125 309.375 457.812 305.234 457.422C301.719 448.125 298.125 435.313 297.109 420C296.016 403.75 297.266 374.453 315.234 345.234C329.453 322.031 347.969 308.906 359.609 302.188C359.453 305.703 359.531 308.984 359.609 312.031C359.844 317.5 360.469 321.953 360.938 325C362.344 333.594 367.734 360.547 390.156 384.766C401.406 396.875 413.203 404.219 421.328 408.438Z" fill="#80BBFF"/>
<path d="M421.328 408.438C413.984 417.813 399.922 433.281 377.5 444.531C356.25 455.234 335.469 458.203 318.828 458.125C313.906 458.125 309.375 457.812 305.234 457.422C301.719 448.125 298.125 435.313 297.109 420C296.016 403.75 297.266 374.453 315.234 345.234C329.453 322.031 347.969 308.906 359.609 302.188C359.453 305.703 359.531 308.984 359.609 312.031C359.844 317.5 360.469 321.953 360.938 325C362.344 333.594 367.734 360.547 390.156 384.766C401.406 396.875 413.203 404.219 421.328 408.438Z" fill="url(#paint1_linear_67_2)"/>
<path d="M363.75 275.469C359.766 289.609 359.141 302.344 359.609 311.953C353.672 316.094 346.328 322.031 339.062 330.078C320.625 350.625 314.219 372.266 312.031 381.094C309.922 389.609 305.234 412.578 312.5 440.156C314.375 447.188 316.641 453.203 318.828 458.125C302.344 458.047 289.844 455.078 284.688 453.672C277.344 451.719 257.422 446.094 237.5 431.094C233.672 428.203 229.922 425.078 226.172 421.484C226.719 411.719 228.359 399.609 232.734 386.328C239.219 366.406 248.906 352.031 255.781 343.359C247.344 345.156 238.984 346.953 230.547 348.75C235.078 336.25 243.516 318.984 259.375 303.203C297.344 265.469 348.828 265.469 366.719 266.719C365.469 269.766 364.531 272.656 363.75 275.469Z" fill="url(#paint2_linear_67_2)"/>
<path d="M363.75 275.469C359.766 289.609 359.141 302.344 359.609 311.953C353.672 316.094 346.328 322.031 339.062 330.078C320.625 350.625 314.219 372.266 312.031 381.094C309.922 389.609 305.234 412.578 312.5 440.156C314.375 447.188 316.641 453.203 318.828 458.125C302.344 458.047 289.844 455.078 284.688 453.672C277.344 451.719 257.422 446.094 237.5 431.094C233.672 428.203 229.922 425.078 226.172 421.484C226.719 411.719 228.359 399.609 232.734 386.328C239.219 366.406 248.906 352.031 255.781 343.359C247.344 345.156 238.984 346.953 230.547 348.75C235.078 336.25 243.516 318.984 259.375 303.203C297.344 265.469 348.828 265.469 366.719 266.719C365.469 269.766 364.531 272.656 363.75 275.469Z" fill="url(#paint3_linear_67_2)"/>
<path d="M363.75 275.469C359.766 289.609 359.141 302.344 359.609 311.953C353.672 316.094 346.328 322.031 339.062 330.078C320.625 350.625 314.219 372.266 312.031 381.094C309.922 389.609 305.234 412.578 312.5 440.156C314.375 447.188 316.641 453.203 318.828 458.125C302.344 458.047 289.844 455.078 284.688 453.672C277.344 451.719 257.422 446.094 237.5 431.094C233.672 428.203 229.922 425.078 226.172 421.484C226.719 411.719 228.359 399.609 232.734 386.328C239.219 366.406 248.906 352.031 255.781 343.359C247.344 345.156 238.984 346.953 230.547 348.75C235.078 336.25 243.516 318.984 259.375 303.203C297.344 265.469 348.828 265.469 366.719 266.719C365.469 269.766 364.531 272.656 363.75 275.469Z" fill="url(#paint4_linear_67_2)"/>
<path opacity="0.8" d="M363.75 275.469C359.766 289.609 359.141 302.344 359.609 311.953C353.672 316.094 346.328 322.031 339.062 330.078C320.625 350.625 314.219 372.266 312.031 381.094C309.922 389.609 305.234 412.578 312.5 440.156C314.375 447.188 316.641 453.203 318.828 458.125C302.344 458.047 289.844 455.078 284.688 453.672C277.344 451.719 257.422 446.094 237.5 431.094C233.672 428.203 229.922 425.078 226.172 421.484C226.719 411.719 228.359 399.609 232.734 386.328C239.219 366.406 248.906 352.031 255.781 343.359C247.344 345.156 238.984 346.953 230.547 348.75C235.078 336.25 243.516 318.984 259.375 303.203C297.344 265.469 348.828 265.469 366.719 266.719C365.469 269.766 364.531 272.656 363.75 275.469Z" fill="url(#paint5_linear_67_2)"/>
<path opacity="0.5" d="M318.75 458.203C307.812 458.203 298.516 456.875 291.484 455.391C284.141 453.906 271.25 450.625 256.641 443.125C246.406 437.891 239.453 432.734 237.344 431.172C229.375 425.156 223.281 419.063 218.906 414.063C220.391 398.438 224.063 386.25 227.109 378.203C237.891 349.688 255.313 332.656 264.375 330.547C269.219 329.453 274.844 328.906 274.844 328.906C278.828 328.516 281.953 328.438 284.219 328.438C288.047 328.359 291.563 328.516 294.688 328.75C293.125 331.484 291.016 335.391 288.828 340.156C284.297 350.156 277.5 364.688 277.5 382.734C277.5 405.391 286.875 421.641 290.781 428.203C300.156 443.906 311.797 453.359 318.75 458.203Z" fill="url(#paint6_linear_67_2)"/>
<path d="M404.297 215.703C396.094 222.031 379.141 236.797 368.516 262.031C366.562 266.641 365 271.094 363.828 275.469C357.891 275.156 350.156 275.156 341.328 276.328C325.859 278.281 313.906 282.656 306.641 285.781C299.062 289.062 286.484 295.391 273.594 306.797C262.031 316.953 254.297 327.422 249.375 335.391C253.594 333.672 258.594 331.953 264.453 330.703C272.031 329.062 278.828 328.594 284.219 328.594C279.063 332.734 272.5 338.594 265.859 346.641C259.219 354.687 251.016 366.641 245.078 382.5C237.656 402.266 236.875 420 237.344 431.328C226.094 422.891 214.922 411.484 205.938 396.094C202.266 389.766 181.094 352.031 193.125 305.234C199.219 281.406 211.406 264.922 218.828 256.328C213.828 257.656 207.813 259.687 201.25 262.969C193.828 266.641 188.047 270.859 183.75 274.375C188.672 262.891 208.438 220 256.953 197.656C296.094 179.687 345.469 178.984 383.672 200.781C392.812 205.937 399.609 211.484 404.297 215.703Z" fill="white"/>
<path d="M435.312 290.781C430 290.469 424.219 290.391 418.125 290.938C406.484 291.875 397.344 294.375 392.266 295.938C385.156 298.125 379.297 300.703 374.766 302.969C375.156 292.109 377.266 283.281 379.141 277.188C380.156 273.906 381.25 270.938 382.344 268.359C391.641 270.234 402.891 273.516 415.078 279.219C422.578 282.813 429.375 286.797 435.312 290.781Z" fill="#B2D6FF"/>
<path d="M435.312 290.781C430 290.469 424.219 290.391 418.125 290.938C406.484 291.875 397.344 294.375 392.266 295.938C385.156 298.125 379.297 300.703 374.766 302.969C375.156 292.109 377.266 283.281 379.141 277.188C380.156 273.906 381.25 270.938 382.344 268.359C391.641 270.234 402.891 273.516 415.078 279.219C422.578 282.813 429.375 286.797 435.312 290.781Z" fill="url(#paint7_linear_67_2)"/>
<path d="M452.188 319.062C447.734 313.75 441.797 307.5 434.062 301.484C428.437 297.031 422.969 293.594 418.125 290.938C410.469 286.719 403.906 284.141 399.687 282.656C391.875 279.844 384.766 278.203 379.062 277.266C381.172 270.469 383.672 265.078 385.391 261.641C386.172 260.078 388.75 255.078 392.656 249.531C400.078 238.984 408.75 231.25 415.703 226.094C419.062 228.203 423.438 231.25 427.969 235.625C429.766 237.344 435.938 243.437 441.641 253.203C448.516 264.922 450.781 275.312 451.953 280.703C454.687 293.281 454.844 306.406 452.188 319.062Z" fill="white"/>
</g>
<defs>
<linearGradient id="paint0_linear_67_2" x1="320" y1="95.6088" x2="320" y2="305.802" gradientUnits="userSpaceOnUse">
<stop stop-color="#4DA1FF"/>
<stop offset="1" stop-color="#0072EE"/>
</linearGradient>
<linearGradient id="paint1_linear_67_2" x1="362.193" y1="540.578" x2="357.464" y2="345.348" gradientUnits="userSpaceOnUse">
<stop stop-color="white" stop-opacity="0"/>
<stop offset="1" stop-color="#1A86FF" stop-opacity="0.4"/>
</linearGradient>
<linearGradient id="paint2_linear_67_2" x1="232.116" y1="428.141" x2="311.154" y2="361.938" gradientUnits="userSpaceOnUse">
<stop stop-color="white"/>
<stop offset="1" stop-color="#B2D6FF"/>
</linearGradient>
<linearGradient id="paint3_linear_67_2" x1="194.724" y1="428.9" x2="309.227" y2="367.089" gradientUnits="userSpaceOnUse">
<stop stop-color="white"/>
<stop offset="1" stop-color="#B2D6FF"/>
</linearGradient>
<linearGradient id="paint4_linear_67_2" x1="291.538" y1="357.409" x2="303.698" y2="271.391" gradientUnits="userSpaceOnUse">
<stop stop-color="white" stop-opacity="0"/>
<stop offset="1" stop-color="#4DA1FF" stop-opacity="0.4"/>
</linearGradient>
<linearGradient id="paint5_linear_67_2" x1="318.17" y1="376.702" x2="265.928" y2="298.79" gradientUnits="userSpaceOnUse">
<stop stop-color="white" stop-opacity="0"/>
<stop offset="1" stop-color="#4DA1FF" stop-opacity="0.4"/>
</linearGradient>
<linearGradient id="paint6_linear_67_2" x1="281.246" y1="388.916" x2="243.578" y2="369.084" gradientUnits="userSpaceOnUse">
<stop stop-color="white" stop-opacity="0"/>
<stop offset="1" stop-color="#4DA1FF" stop-opacity="0.3"/>
</linearGradient>
<linearGradient id="paint7_linear_67_2" x1="412.162" y1="326.431" x2="401.354" y2="281.845" gradientUnits="userSpaceOnUse">
<stop stop-color="white" stop-opacity="0"/>
<stop offset="1" stop-color="#4DA1FF" stop-opacity="0.4"/>
</linearGradient>
<clipPath id="clip0_67_2">
<rect width="400" height="400" fill="white" transform="translate(120 120)"/>
</clipPath>
</defs>
</svg>
