<svg width="72" height="72" viewBox="0 0 72 72" fill="none" xmlns="http://www.w3.org/2000/svg">
<path d="M15.8434 1.84282L0.2178 34.9075C0.0809756 35.1971 0.0910873 35.5346 0.244998 35.8154L8.02096 50.0032C8.42026 50.7317 9.4823 50.6839 9.81447 49.9224L16.7143 34.1053L35.1088 70.2488C35.4796 70.9774 36.5204 70.9774 36.8912 70.2488L55.2857 34.1053L62.1855 49.9224C62.5177 50.6839 63.5798 50.7317 63.979 50.0032L71.755 35.8154C71.9089 35.5346 71.919 35.1971 71.7822 34.9075L56.1566 1.84281C55.8015 1.09149 54.7382 1.07591 54.3612 1.81651L36 37.8947L17.6388 1.81651C17.2618 1.07591 16.1985 1.09149 15.8434 1.84282Z" fill="#BBBBBB"/>
</svg>
