<svg width="72" height="72" viewBox="0 0 72 72" fill="none" xmlns="http://www.w3.org/2000/svg">
<path d="M19.2028 7.53568L6.1815 35.0896C6.06748 35.3309 6.07591 35.6122 6.20417 35.8462L12.6841 47.6693C13.0169 48.2764 13.9019 48.2365 14.1787 47.602L19.9286 34.4211L35.2573 64.5407C35.5663 65.1478 36.4337 65.1478 36.7427 64.5407L52.0714 34.4211L57.8213 47.602C58.0981 48.2365 58.9831 48.2764 59.3159 47.6693L65.7958 35.8462C65.9241 35.6122 65.9325 35.3309 65.8185 35.0896L52.7972 7.53568C52.5013 6.90957 51.6151 6.89659 51.301 7.51376L36 37.5789L20.699 7.51376C20.3849 6.89659 19.4987 6.90957 19.2028 7.53568Z" fill="#BBBBBB"/>
</svg>
