<svg width="1200" height="630" viewBox="0 0 1200 630" fill="none" xmlns="http://www.w3.org/2000/svg">
<rect width="1200" height="630" fill="white"/>
<rect width="1200" height="630" fill="#FBF6E8" fill-opacity="0.3"/>
<path d="M411.053 556V540.057C411.053 538.721 410.871 537.625 410.508 536.77C410.156 535.902 409.646 535.217 408.979 534.713C408.322 534.209 407.52 533.857 406.57 533.658C405.621 533.459 404.555 533.359 403.371 533.359C402 533.359 400.652 533.529 399.328 533.869C398.016 534.197 396.773 534.619 395.602 535.135C394.43 535.639 393.352 536.201 392.367 536.822C391.383 537.443 390.551 538.041 389.871 538.615V556H387.674V531.848H389.871V536.084C390.691 535.568 391.594 535.029 392.578 534.467C393.574 533.893 394.641 533.371 395.777 532.902C396.926 532.422 398.15 532.029 399.451 531.725C400.752 531.42 402.123 531.268 403.564 531.268C405.193 531.268 406.611 531.467 407.818 531.865C409.037 532.252 410.045 532.809 410.842 533.535C411.65 534.25 412.254 535.123 412.652 536.154C413.051 537.174 413.25 538.316 413.25 539.582V556H411.053Z" fill="#6F5F3A"/>
<path d="M379.254 554.734C378.27 555.039 377.355 555.303 376.512 555.525C375.668 555.736 374.836 555.906 374.016 556.035C373.195 556.176 372.357 556.275 371.502 556.334C370.658 556.404 369.727 556.439 368.707 556.439C366.34 556.439 364.201 556.152 362.291 555.578C360.381 555.004 358.752 554.184 357.404 553.117C356.068 552.039 355.037 550.738 354.311 549.215C353.584 547.691 353.221 545.98 353.221 544.082C353.221 542.242 353.566 540.555 354.258 539.02C354.961 537.484 355.939 536.166 357.193 535.064C358.447 533.963 359.947 533.107 361.693 532.498C363.439 531.889 365.367 531.584 367.477 531.584C369.668 531.584 371.619 531.877 373.33 532.463C375.041 533.049 376.482 533.887 377.654 534.977C378.826 536.066 379.717 537.391 380.326 538.949C380.936 540.496 381.24 542.242 381.24 544.188V544.732H355.488C355.617 546.232 355.992 547.586 356.613 548.793C357.234 550 358.113 551.025 359.25 551.869C360.398 552.713 361.805 553.363 363.469 553.82C365.145 554.266 367.096 554.488 369.322 554.488C370.271 554.488 371.232 554.424 372.205 554.295C373.178 554.166 374.109 553.996 375 553.785C375.891 553.562 376.705 553.316 377.443 553.047C378.182 552.766 378.785 552.479 379.254 552.186V554.734ZM379.078 542.816C378.996 541.586 378.721 540.414 378.252 539.301C377.783 538.176 377.08 537.186 376.143 536.33C375.217 535.475 374.033 534.795 372.592 534.291C371.162 533.787 369.445 533.535 367.441 533.535C365.555 533.535 363.902 533.787 362.484 534.291C361.066 534.795 359.865 535.475 358.881 536.33C357.896 537.174 357.123 538.158 356.561 539.283C355.998 540.396 355.641 541.574 355.488 542.816H379.078Z" fill="#6F5F3A"/>
<path d="M344.678 556V540.057C344.678 538.721 344.496 537.625 344.133 536.77C343.781 535.902 343.271 535.217 342.604 534.713C341.947 534.209 341.145 533.857 340.195 533.658C339.246 533.459 338.18 533.359 336.996 533.359C335.625 533.359 334.277 533.529 332.953 533.869C331.641 534.197 330.398 534.619 329.227 535.135C328.055 535.639 326.977 536.201 325.992 536.822C325.008 537.443 324.176 538.041 323.496 538.615V556H321.299V531.848H323.496V536.084C324.316 535.568 325.219 535.029 326.203 534.467C327.199 533.893 328.266 533.371 329.402 532.902C330.551 532.422 331.775 532.029 333.076 531.725C334.377 531.42 335.748 531.268 337.189 531.268C338.818 531.268 340.236 531.467 341.443 531.865C342.662 532.252 343.67 532.809 344.467 533.535C345.275 534.25 345.879 535.123 346.277 536.154C346.676 537.174 346.875 538.316 346.875 539.582V556H344.678Z" fill="#6F5F3A"/>
<path d="M310.963 556V531.848H313.16V556H310.963Z" fill="#6F5F3A"/>
<path d="M295.23 533.852V556H293.051V533.852H282.064V531.848H306.217V533.852H295.23Z" fill="#6F5F3A"/>
<path d="M269.707 533.852V556H267.527V533.852H256.541V531.848H280.693V533.852H269.707Z" fill="#6F5F3A"/>
<path d="M249.686 556V540.057C249.686 538.721 249.504 537.625 249.141 536.77C248.789 535.902 248.279 535.217 247.611 534.713C246.955 534.209 246.152 533.857 245.203 533.658C244.254 533.459 243.188 533.359 242.004 533.359C240.633 533.359 239.285 533.529 237.961 533.869C236.648 534.197 235.406 534.619 234.234 535.135C233.062 535.639 231.984 536.201 231 536.822C230.016 537.443 229.184 538.041 228.504 538.615V556H226.307V531.848H228.504V536.084C229.324 535.568 230.227 535.029 231.211 534.467C232.207 533.893 233.273 533.371 234.41 532.902C235.559 532.422 236.783 532.029 238.084 531.725C239.385 531.42 240.756 531.268 242.197 531.268C243.826 531.268 245.244 531.467 246.451 531.865C247.67 532.252 248.678 532.809 249.475 533.535C250.283 534.25 250.887 535.123 251.285 536.154C251.684 537.174 251.883 538.316 251.883 539.582V556H249.686Z" fill="#6F5F3A"/>
<path d="M218.168 547.176C218.168 548.758 217.799 550.129 217.061 551.289C216.322 552.438 215.303 553.393 214.002 554.154C212.713 554.916 211.184 555.484 209.414 555.859C207.656 556.223 205.752 556.404 203.701 556.404C201.475 556.404 199.43 556.264 197.566 555.982C195.703 555.689 194.074 555.285 192.68 554.77V552.221C193.43 552.537 194.203 552.83 195 553.1C195.797 553.369 196.646 553.609 197.549 553.82C198.451 554.02 199.412 554.178 200.432 554.295C201.463 554.4 202.576 554.453 203.771 554.453C205.459 554.453 207.041 554.295 208.518 553.979C209.994 553.65 211.277 553.182 212.367 552.572C213.469 551.951 214.336 551.189 214.969 550.287C215.613 549.385 215.936 548.348 215.936 547.176V542.605C215.373 543.367 214.682 544.1 213.861 544.803C213.053 545.494 212.145 546.109 211.137 546.648C210.141 547.176 209.057 547.604 207.885 547.932C206.713 548.248 205.477 548.406 204.176 548.406C202.699 548.406 201.387 548.271 200.238 548.002C199.102 547.721 198.105 547.34 197.25 546.859C196.406 546.379 195.691 545.811 195.105 545.154C194.52 544.486 194.045 543.766 193.682 542.992C193.33 542.207 193.072 541.387 192.908 540.531C192.756 539.676 192.68 538.809 192.68 537.93V531.848H194.912V537.455C194.912 538.803 195.07 540.027 195.387 541.129C195.715 542.23 196.248 543.174 196.986 543.959C197.725 544.744 198.691 545.354 199.887 545.787C201.094 546.209 202.582 546.42 204.352 546.42C205.723 546.42 206.982 546.238 208.131 545.875C209.279 545.5 210.328 545.002 211.277 544.381C212.227 543.748 213.088 543.021 213.861 542.201C214.635 541.381 215.326 540.52 215.936 539.617V531.848H218.168V547.176Z" fill="#6F5F3A"/>
<path d="M183.188 556V535.451L169.916 556H167.965L154.676 535.363V556H152.479V531.848H154.834L169.002 553.732L183.012 531.848H185.35V556H183.188Z" fill="#6F5F3A"/>
<path d="M132.492 543.941C132.492 546.109 132.1 547.984 131.314 549.566C130.529 551.137 129.451 552.438 128.08 553.469C126.709 554.488 125.092 555.244 123.229 555.736C121.365 556.229 119.355 556.475 117.199 556.475C115.031 556.475 113.01 556.229 111.135 555.736C109.26 555.244 107.631 554.488 106.248 553.469C104.865 552.438 103.781 551.137 102.996 549.566C102.211 547.984 101.818 546.109 101.818 543.941C101.818 542.5 102 541.193 102.363 540.021C102.727 538.838 103.236 537.783 103.893 536.857C104.549 535.92 105.34 535.111 106.266 534.432C107.203 533.752 108.24 533.189 109.377 532.744C110.525 532.287 111.756 531.953 113.068 531.742C114.381 531.52 115.758 531.408 117.199 531.408C119.355 531.408 121.365 531.654 123.229 532.146C125.092 532.639 126.709 533.4 128.08 534.432C129.451 535.451 130.529 536.752 131.314 538.334C132.1 539.904 132.492 541.773 132.492 543.941ZM130.225 543.941C130.225 542.23 129.943 540.719 129.381 539.406C128.83 538.094 128.01 536.992 126.92 536.102C125.83 535.199 124.471 534.52 122.842 534.062C121.225 533.594 119.344 533.359 117.199 533.359C115.055 533.359 113.162 533.594 111.521 534.062C109.893 534.531 108.527 535.217 107.426 536.119C106.324 537.01 105.492 538.117 104.93 539.441C104.367 540.754 104.086 542.254 104.086 543.941C104.086 545.652 104.367 547.164 104.93 548.477C105.492 549.789 106.324 550.896 107.426 551.799C108.527 552.689 109.893 553.369 111.521 553.838C113.162 554.295 115.055 554.523 117.199 554.523C119.344 554.523 121.225 554.295 122.842 553.838C124.471 553.369 125.83 552.689 126.92 551.799C128.01 550.896 128.83 549.789 129.381 548.477C129.943 547.164 130.225 545.652 130.225 543.941Z" fill="#6F5F3A"/>
<path d="M86.6484 556H83.3613L71.3027 531.848H73.7637L85.0664 554.488L96.3691 531.848H98.8125L86.6484 556Z" fill="#6F5F3A"/>
<path d="M64.0605 556V531.848H66.2578V556H64.0605Z" fill="#6F5F3A"/>
<path d="M1102.56 523.229L1092.15 545.272C1092.05 545.465 1092.06 545.69 1092.16 545.877L1097.35 555.335C1097.61 555.821 1098.32 555.789 1098.54 555.282L1103.14 544.737L1115.41 568.833C1115.65 569.318 1116.35 569.318 1116.59 568.833L1128.86 544.737L1133.46 555.282C1133.68 555.789 1134.39 555.821 1134.65 555.335L1139.84 545.877C1139.94 545.69 1139.95 545.465 1139.85 545.272L1129.44 523.229C1129.2 522.728 1128.49 522.717 1128.24 523.211L1116 547.263L1103.76 523.211C1103.51 522.717 1102.8 522.728 1102.56 523.229Z" fill="#CDC8B9"/>
</svg>
