<svg width="24" height="24" viewBox="0 0 24 24" fill="none" xmlns="http://www.w3.org/2000/svg">
<path fill-rule="evenodd" clip-rule="evenodd" d="M17.4825 7.87938L12.6529 5.15204C12.2942 4.94932 11.7061 4.94932 11.3477 5.15204L6.51809 7.87938C6.15853 8.0828 6.15853 8.41465 6.51809 8.61709L11.3477 11.3442C11.7061 11.5477 12.2942 11.5477 12.6529 11.3442L17.4825 8.61709C17.8412 8.41465 17.8412 8.0828 17.4825 7.87938ZM17.8591 9.25563L13.0295 11.9831C12.6714 12.1855 12.3768 12.6838 12.3768 13.0889V18.5442C12.3768 18.9504 12.6714 19.116 13.0295 18.9137L14.7843 17.9209L15.4033 18.5261C15.6964 18.8131 16.0246 18.7272 16.1314 18.3362L16.7166 16.8303L17.8591 16.1855C18.2178 15.9838 18.5118 15.4854 18.5118 15.0797V9.62434C18.5118 9.21918 18.2178 9.05305 17.8591 9.25563ZM6.14117 9.25563L10.9708 11.9831C11.3295 12.1855 11.6241 12.6838 11.6241 13.0889V18.5442C11.6241 18.9504 11.3295 19.116 10.9708 18.9137L6.14117 16.1855C5.78244 15.9838 5.48816 15.4854 5.48816 15.0797V9.62434C5.48816 9.21918 5.78244 9.05305 6.14117 9.25563ZM10.6294 17.1134C10.5792 17.1982 10.4876 17.2462 10.3932 17.2462C10.3472 17.2462 10.3001 17.2343 10.2574 17.2111L6.56168 15.1243C6.43232 15.0503 6.38724 14.8875 6.46205 14.7604C6.53741 14.6327 6.70411 14.5898 6.83463 14.6627L10.5298 16.7495C10.6598 16.823 10.7045 16.9857 10.6294 17.1134ZM10.6294 15.2944C10.5792 15.3797 10.4876 15.4266 10.3932 15.4266C10.3472 15.4266 10.3001 15.4159 10.2574 15.3916L6.56168 13.3048C6.43232 13.2313 6.38724 13.068 6.46205 12.9409C6.53741 12.8137 6.70411 12.77 6.83463 12.8437L10.5298 14.9305C10.6598 15.0034 10.7045 15.1661 10.6294 15.2944ZM10.6294 13.4291C10.5792 13.5147 10.4876 13.5624 10.3932 13.5624C10.3472 13.5624 10.3001 13.5506 10.2574 13.5266L6.56168 11.4398C6.43232 11.3666 6.38724 11.2034 6.46205 11.0761C6.53741 10.9488 6.70411 10.9051 6.83463 10.9788L10.5298 13.0652C10.6598 13.1389 10.7045 13.302 10.6294 13.4291Z" fill="#1660D4"/>
</svg>
